<svg width="64" height="64" viewBox="0 0 64 64" fill="none" xmlns="http://www.w3.org/2000/svg">
<rect width="64" height="64" fill="black"/>
<path d="M25.148 38.4973V54H16V10H33.3202C36.6541 10 39.5815 10.6044 42.1022 11.8132C44.6433 13.022 46.5949 14.7445 47.957 16.9808C49.319 19.1969 50 21.7253 50 24.5659C50 28.8773 48.5058 32.2821 45.5175 34.7802C42.5495 37.2582 38.4329 38.4973 33.1677 38.4973H25.148ZM25.148 31.1538H33.3202C35.7393 31.1538 37.5791 30.5897 38.8395 29.4615C40.1202 28.3333 40.7605 26.7216 40.7605 24.6264C40.7605 22.4707 40.1202 20.728 38.8395 19.3984C37.5587 18.0687 35.7901 17.3837 33.5336 17.3434H25.148V31.1538Z" fill="white"/>
</svg>